<?xml version="1.0" standalone="no"?>
<!DOCTYPE svg PUBLIC "-//W3C//DTD SVG 20010904//EN"
 "http://www.w3.org/TR/2001/REC-SVG-20010904/DTD/svg10.dtd">
<svg version="1.0" xmlns="http://www.w3.org/2000/svg"
 width="512.000000pt" height="512.000000pt" viewBox="0 0 512.000000 512.000000"
 preserveAspectRatio="xMidYMid meet">
<metadata>
Created by potrace 1.14, written by Peter Selinger 2001-2017
</metadata>
<g transform="translate(0.000000,512.000000) scale(0.100000,-0.100000)"
fill="#000000" stroke="none">
<path d="M235 5106 c-22 -7 -55 -20 -72 -29 -38 -20 -113 -95 -113 -114 0 -7
-4 -13 -8 -13 -5 0 -16 -24 -25 -52 -16 -49 -17 -223 -17 -2333 0 -1658 4
-2292 12 -2325 13 -54 61 -127 106 -165 18 -15 59 -38 90 -51 l57 -23 2305 2
2305 2 56 26 c71 33 125 87 158 158 l26 56 0 2315 0 2315 -26 56 c-33 69 -88
124 -159 158 l-55 26 -2300 2 c-1837 1 -2308 -1 -2340 -11z"/>
</g>
</svg>
